<?xml version="1.0" encoding="UTF-8" standalone="no"?>
<svg width="45px" height="47px" viewBox="0 0 45 47" version="1.1" xmlns="http://www.w3.org/2000/svg" xmlns:xlink="http://www.w3.org/1999/xlink" xmlns:sketch="http://www.bohemiancoding.com/sketch/ns">
    <!-- Generator: Sketch 3.3 (11970) - http://www.bohemiancoding.com/sketch -->
    <title>10</title>
    <desc>Created with Sketch.</desc>
    <defs></defs>
    <g id="Page-1" stroke="none" stroke-width="1" fill="none" fill-rule="evenodd" sketch:type="MSPage">
        <path d="M9.47629762,45.04 L3.50588077,45.04 L3.50588077,3.86025997 C5.39921162,3.86025997 6.34586284,2.91360875 6.34586284,1.0202779 L9.47629762,1.0202779 L9.47629762,45.04 Z M40.4256477,34.5837024 C40.4256477,38.0261221 39.3714225,40.7961527 37.2629404,42.8938772 C35.1544583,44.9916017 32.3145046,46.0404482 28.7429942,46.0404482 C25.1714837,46.0404482 22.3261513,44.9916017 20.2069117,42.8938772 C18.0876721,40.7961527 17.0280681,38.0261221 17.0280681,34.5837024 L17.0280681,11.4765755 C17.0280681,8.0341558 18.0876721,5.26412524 20.2069117,3.16640072 C22.3261513,1.0686762 25.1714837,0.0198296728 28.7429942,0.0198296728 C32.3145046,0.0198296728 35.1544583,1.0686762 37.2629404,3.16640072 C39.3714225,5.26412524 40.4256477,8.0341558 40.4256477,11.4765755 L40.4256477,34.5837024 Z M34.5520484,35.1968803 L34.5520484,10.8633976 C34.5520484,9.3143087 34.0249358,8.02342067 32.9706948,6.99069476 C31.9164537,5.95796884 30.5072343,5.44161363 28.7429942,5.44161363 C26.9787541,5.44161363 25.5533985,5.96334754 24.4668848,7.00683102 C23.3803711,8.0503145 22.8371224,9.33582383 22.8371224,10.8633976 L22.8371224,35.1968803 C22.8371224,36.7459692 23.3803711,38.0368572 24.4668848,39.0695831 C25.5533985,40.1023091 26.9787541,40.6186643 28.7429942,40.6186643 C30.5072343,40.6186643 31.9164537,40.1023091 32.9706948,39.0695831 C34.0249358,38.0368572 34.5520484,36.7459692 34.5520484,35.1968803 L34.5520484,35.1968803 Z" id="10" fill="#D6D6D6" sketch:type="MSShapeGroup"></path>
    </g>
</svg>