<?xml version="1.0" encoding="UTF-8" standalone="no"?>
<svg width="45px" height="46px" viewBox="0 0 45 46" version="1.1" xmlns="http://www.w3.org/2000/svg" xmlns:xlink="http://www.w3.org/1999/xlink" xmlns:sketch="http://www.bohemiancoding.com/sketch/ns">
    <!-- Generator: Sketch 3.3 (11970) - http://www.bohemiancoding.com/sketch -->
    <title>5</title>
    <desc>Created with Sketch.</desc>
    <defs></defs>
    <g id="Page-1" stroke="none" stroke-width="1" fill="none" fill-rule="evenodd" sketch:type="MSPage">
        <path d="M33.7636629,0.980277902 C33.6345722,3.00269949 33.2150336,4.42267632 32.5050345,5.24025101 C31.7950354,6.05782569 30.5149048,6.4666069 28.6646042,6.4666069 L18.3051242,6.4666069 L17.433766,19.2142537 C19.0258851,16.7400145 21.73675,15.5136709 25.566442,15.535186 C28.0837114,15.535186 30.0792091,16.3043401 31.5529951,17.8426714 C33.026781,19.3810028 33.7636629,21.4302875 33.7636629,23.9905872 L33.7636629,35.1568803 C33.7636629,38.5132396 32.7739821,41.15956 30.7945908,43.0959211 C28.8151994,45.0322822 26.0397902,46.0004482 22.4682797,46.0004482 C19.0688902,46.0004482 16.4333272,44.9838739 14.5615114,42.9506948 C12.6896957,40.9175156 11.7538019,38.4486922 11.7538019,35.5441506 L11.7538019,32.1878082 L17.0464957,32.1878082 L17.0464957,34.8341551 C17.0464957,36.6844557 17.4983066,38.1474621 18.4019417,39.2232183 C19.3055769,40.2989745 20.6610093,40.8368445 22.4682797,40.8368445 C26.1258506,40.8368445 27.9546087,38.835968 27.9546087,34.8341551 L27.9546087,24.8942178 C27.9546087,23.3881592 27.5673423,22.2317387 26.7927978,21.4249216 C26.0182534,20.6181044 24.9425134,20.2147019 23.5655455,20.2147019 C20.4888829,20.2147019 18.315888,21.8713416 17.0464957,25.1846706 L12.1410722,24.1842223 L13.3351555,0.980277902 L33.7636629,0.980277902 Z" id="5" fill="#D6D6D6" sketch:type="MSShapeGroup"></path>
    </g>
</svg>