<?xml version="1.0" encoding="UTF-8" standalone="no"?>
<svg width="45px" height="47px" viewBox="0 0 45 47" version="1.1" xmlns="http://www.w3.org/2000/svg" xmlns:xlink="http://www.w3.org/1999/xlink" xmlns:sketch="http://www.bohemiancoding.com/sketch/ns">
    <!-- Generator: Sketch 3.3 (11970) - http://www.bohemiancoding.com/sketch -->
    <title>6</title>
    <desc>Created with Sketch.</desc>
    <defs></defs>
    <g id="Page-1" stroke="none" stroke-width="1" fill="none" fill-rule="evenodd" sketch:type="MSPage">
        <path d="M34.3382913,35.705065 C34.3382913,39.1044545 33.321717,41.8260767 31.2885379,43.8700134 C29.2553587,45.9139502 26.453056,46.9359032 22.8815455,46.9359032 C19.3530653,46.9359032 16.5668986,45.9085715 14.5229619,43.8538772 C12.4790252,41.7991829 11.4570722,39.0829393 11.4570722,35.705065 L11.4570722,12.7593008 C11.4570722,9.1877903 12.5059187,6.33170053 14.6036432,4.19094576 C16.7013677,2.050191 19.5359427,0.979829673 23.1074532,0.979829673 C26.5068426,0.979829673 29.1477844,1.996404 31.0303577,4.02958315 C32.912931,6.06276229 33.8542035,8.53158566 33.8542035,11.4361273 L33.8542035,14.2761094 L28.5937822,14.2761094 L28.5937822,12.1461228 C28.5937822,8.14430989 26.6466927,6.14343344 22.7524554,6.14343344 C19.0518542,6.14343344 17.2015814,8.30567089 17.2015814,12.6302107 L17.2015814,22.9896907 C19.2670332,20.3863608 22.0639573,19.0847154 25.5924375,19.0847154 C28.2818279,19.0847154 30.4117931,19.9237926 31.9823971,21.6019722 C33.5530011,23.2801518 34.3382913,25.4208745 34.3382913,28.0242044 L34.3382913,35.705065 Z M28.5937822,36.4796056 L28.5937822,28.9601076 C28.5937822,25.4316274 26.7650241,23.6674137 23.1074532,23.6674137 C21.3001828,23.6674137 19.8640699,24.1730115 18.7990713,25.1842223 C17.7340727,26.1954331 17.2015814,27.4540489 17.2015814,28.9601076 L17.2015814,36.0277902 C17.2015814,37.7490001 17.7233153,39.1474621 18.7667987,40.2232183 C19.8102822,41.2989745 21.1872295,41.8368445 22.8976818,41.8368445 C24.6081341,41.8368445 25.9850813,41.3420041 27.0285648,40.3523084 C28.0720482,39.3626127 28.5937822,38.0717247 28.5937822,36.4796056 L28.5937822,36.4796056 Z" id="6" fill="#D6D6D6" sketch:type="MSShapeGroup"></path>
    </g>
</svg>