<?xml version="1.0" encoding="UTF-8" standalone="no"?>
<svg width="45px" height="47px" viewBox="0 0 45 47" version="1.1" xmlns="http://www.w3.org/2000/svg" xmlns:xlink="http://www.w3.org/1999/xlink" xmlns:sketch="http://www.bohemiancoding.com/sketch/ns">
    <!-- Generator: Sketch 3.3 (11970) - http://www.bohemiancoding.com/sketch -->
    <title>8</title>
    <desc>Created with Sketch.</desc>
    <defs></defs>
    <g id="Page-1" stroke="none" stroke-width="1" fill="none" fill-rule="evenodd" sketch:type="MSPage">
        <path d="M33.6382035,36.4150605 C33.6382035,39.642329 32.6377653,42.2133477 30.6368588,44.1281936 C28.6359523,46.0430396 25.8713005,47.0004482 22.3428203,47.0004482 C18.7713098,47.0004482 15.9851431,46.0430396 13.9842367,44.1281936 C11.9833302,42.2133477 10.982892,39.642329 10.982892,36.4150605 L10.982892,31.1223667 C10.982892,29.4011568 11.4239454,27.8789847 12.3060654,26.5558046 C13.1881855,25.2326245 14.2854403,24.2698372 15.5978628,23.6674137 C14.2854403,23.0434751 13.2204577,22.0806878 12.402883,20.7790229 C11.5853083,19.4773579 11.1765271,17.9444284 11.1765271,16.1801883 L11.1765271,11.5652174 C11.1765271,8.3379489 12.1554505,5.76693024 14.1133268,3.85208427 C16.071203,1.9372383 18.81434,0.979829673 22.3428203,0.979829673 C25.8713005,0.979829673 28.6036801,1.9372383 30.5400412,3.85208427 C32.4764023,5.76693024 33.4445684,8.3379489 33.4445684,11.5652174 L33.4445684,16.1801883 C33.4445684,17.9444284 33.0411658,19.4773579 32.2343487,20.7790229 C31.4275316,22.0806878 30.3786851,23.0434751 29.0877777,23.6674137 C30.4002002,24.3343825 31.4866976,25.313306 32.3473026,26.6042134 C33.2079075,27.8951208 33.6382035,29.4011568 33.6382035,31.1223667 L33.6382035,36.4150605 Z M27.9582394,16.470641 L27.9582394,11.8879426 C27.9582394,10.0806723 27.4418841,8.67145284 26.4091582,7.66024204 C25.3764323,6.64903125 24.0209999,6.14343344 22.3428203,6.14343344 C20.6646406,6.14343344 19.2984508,6.64903125 18.2442098,7.66024204 C17.1899687,8.67145284 16.6628561,10.0806723 16.6628561,11.8879426 L16.6628561,16.470641 C16.6628561,17.9336694 17.1361817,19.1976639 18.0828472,20.2626625 C19.0295126,21.3276611 20.4494894,21.8601524 22.3428203,21.8601524 C24.1931209,21.8601524 25.5915829,21.3276611 26.5382483,20.2626625 C27.4849137,19.1976639 27.9582394,17.9336694 27.9582394,16.470641 L27.9582394,16.470641 Z M28.0873294,36.0923353 L28.0873294,31.1223667 C28.0873294,29.7023685 27.592489,28.4545101 26.6027934,27.3787539 C25.6130977,26.3029978 24.1931209,25.7651277 22.3428203,25.7651277 C20.4494894,25.7651277 19.0079978,26.3083765 18.0183021,27.3948902 C17.0286064,28.4814039 16.533766,29.7238836 16.533766,31.1223667 L16.533766,36.0923353 C16.533766,37.8565754 17.071636,39.2550374 18.1473922,40.2877633 C19.2231484,41.3204893 20.6216104,41.8368445 22.3428203,41.8368445 C24.0209999,41.8368445 25.3979471,41.3204893 26.4737033,40.2877633 C27.5494594,39.2550374 28.0873294,37.8565754 28.0873294,36.0923353 L28.0873294,36.0923353 Z" id="8" fill="#D6D6D6" sketch:type="MSShapeGroup"></path>
    </g>
</svg>