<?xml version="1.0" encoding="UTF-8" standalone="no"?>
<svg width="45px" height="47px" viewBox="0 0 45 47" version="1.1" xmlns="http://www.w3.org/2000/svg" xmlns:xlink="http://www.w3.org/1999/xlink" xmlns:sketch="http://www.bohemiancoding.com/sketch/ns">
    <!-- Generator: Sketch 3.3 (11970) - http://www.bohemiancoding.com/sketch -->
    <title>9</title>
    <desc>Created with Sketch.</desc>
    <defs></defs>
    <g id="Page-1" stroke="none" stroke-width="1" fill="none" fill-rule="evenodd" sketch:type="MSPage">
        <path d="M33.9212013,35.5437024 C33.9212013,39.0721826 32.8938695,41.863728 30.8391753,43.9184222 C28.784481,45.9731165 25.9714208,47.0004482 22.3999104,47.0004482 C18.9144604,47.0004482 16.1820807,46.053797 14.2026894,44.1604662 C12.223298,42.2671353 11.2336172,39.8359629 11.2336172,36.8668758 L11.2336172,34.0268938 L16.461766,34.0268938 L16.461766,36.0923353 C16.461766,37.9856661 17.0103934,39.4164004 18.1076647,40.3845809 C19.204936,41.3527615 20.7002146,41.8368445 22.5935455,41.8368445 C26.2511165,41.8368445 28.0798745,39.835968 28.0798745,35.8341551 L28.0798745,25.6360377 C26.1435134,28.2393676 23.5294651,29.541013 20.2376513,29.541013 C17.4191701,29.541013 15.1923883,28.6589062 13.5572389,26.8946661 C11.9220895,25.130426 11.1045271,22.9251589 11.1045271,20.2787987 L11.1045271,12.3074854 C11.1045271,8.90809596 12.1049653,6.17033759 14.1058718,4.09412819 C16.1067783,2.0179188 18.8714301,0.979829673 22.3999104,0.979829673 C26.1005116,0.979829673 28.9458439,2.0179188 30.9359928,4.09412819 C32.9261417,6.17033759 33.9212013,8.97264036 33.9212013,12.5011206 L33.9212013,35.5437024 Z M28.0798745,19.5042582 L28.0798745,11.9524877 C28.0798745,10.2743081 27.5957915,8.88660342 26.6276109,7.78933214 C25.6594304,6.69206085 24.250211,6.14343344 22.3999104,6.14343344 C20.59264,6.14343344 19.194178,6.63827385 18.2044823,7.62796952 C17.2147866,8.61766519 16.7199462,9.90855322 16.7199462,11.5006723 L16.7199462,19.5042582 C16.7199462,21.0963773 17.1932718,22.3765079 18.1399372,23.3446885 C19.0866027,24.312869 20.5065795,24.796952 22.3999104,24.796952 C24.1641505,24.796952 25.5518551,24.2913542 26.5630659,23.2801434 C27.5742767,22.2689326 28.0798745,21.0103168 28.0798745,19.5042582 L28.0798745,19.5042582 Z" id="9" fill="#D6D6D6" sketch:type="MSShapeGroup"></path>
    </g>
</svg>